<?xml version="1.0" encoding="utf-8"?>
<svg xmlns="http://www.w3.org/2000/svg" viewBox="0 0 24 24" width="24" height="24">
  <!-- Outer gear ring — darker tone -->
  <path fill="#2E1F1F" d="M19.14 12.94c.04-.3.06-.61.06-.94s-.02-.64-.07-.94l2.03-1.58a.49.49 0 0 0 .12-.61l-1.92-3.32a.49.49 0 0 0-.59-.22l-2.39.96a7.02 7.02 0 0 0-1.62-.94l-.36-2.54A.484.484 0 0 0 14 3h-3.84c-.24 0-.43.17-.47.41l-.36 2.54c-.59.24-1.13.57-1.62.94l-2.39-.96a.48.48 0 0 0-.59.22L2.74 8.87a.47.47 0 0 0 .12.61l2.03 1.58c-.05.3-.09.63-.09.94s.02.64.07.94l-2.03 1.58a.49.49 0 0 0-.12.61l1.92 3.32c.12.22.37.29.59.22l2.39-.96c.5.38 1.03.7 1.62.94l.36 2.54c.05.24.24.41.48.41h3.84c.24 0 .44-.17.47-.41l.36-2.54c.59-.24 1.13-.56 1.62-.94l2.39.96c.22.08.47 0 .59-.22l1.92-3.32a.47.47 0 0 0-.12-.61l-2.01-1.58z"/>
  <!-- Inner circle — accent mid tone -->
  <circle fill="#533738" cx="12" cy="12" r="3.6"/>
  <!-- Inner circle highlight — lightest tone -->
  <circle fill="#8B5E5F" cx="12" cy="12" r="2" opacity="0.7"/>
</svg>
